<?xml version="1.0" standalone="no"?>
<svg xmlns:xlink="http://www.w3.org/1999/xlink" xmlns="http://www.w3.org/2000/svg" id="hardware-graph-svg" class="w-full h-full cursor-grab active:cursor-grabbing"><rect width="100%" height="100%" fill="url(#grid)"/><g transform="translate(404.10342562992037,213.59194466385122) scale(0.3097064616819817)"><g><path stroke="#d4b483" stroke-width="1.5" stroke-dasharray="4,4" marker-end="url(#arrow-power)" fill="none" d="M 1185.5978733434272 425.0037628338136 L 1088.563952002183 425.0037628338136 L 1088.563952002183 280.2703732016536 L 1030.5300306609388 280.2703732016536"/><path stroke="#d4b483" stroke-width="1.5" stroke-dasharray="4,4" marker-end="url(#arrow-power)" fill="none" d="M 586.4766743497318 161.43279700787687 L 586.4766743497318 261.05095635045615 L 725.5253795307481 261.05095635045615 L 725.5253795307481 321.66911569303545"/><path stroke="#E0F2E9" stroke-width="2" stroke-dasharray="0" marker-end="url(#arrow-data)" fill="none" d="M 991.5300306609387 280.2703732016536 L 858.5277050958434 280.2703732016536 L 858.5277050958434 360.66911569303545 L 764.5253795307481 360.66911569303545"/><path stroke="#E0F2E9" stroke-width="2" stroke-dasharray="0" marker-end="url(#arrow-data)" fill="none" d="M 725.5253795307481 360.66911569303545 L 609.5973558374957 360.66911569303545 L 609.5973558374957 439.0068531477762 L 532.6693321442433 439.0068531477762"/><path stroke="#d4b483" stroke-width="1.5" stroke-dasharray="4,4" marker-end="url(#arrow-power)" fill="none" d="M 725.5253795307481 360.66911569303545 L 725.5253795307481 482.4269505256566 L 716.0993218240717 482.4269505256566 L 716.0993218240717 565.1847853582777"/><path stroke="#E0F2E9" stroke-width="2" stroke-dasharray="0" marker-end="url(#arrow-data)" fill="none" d="M 991.5300306609387 280.2703732016536 L 991.5300306609387 169.43345861416017 L 1088.8320226905662 169.43345861416017 L 1088.8320226905662 97.59654402666672"/></g><g><rect rx="0" fill="#052016" stroke="#0C3827" stroke-width="1" x="1045.6409912109375" y="343.6748046875" width="85.84589385986328" height="16.91545581817627"/><rect rx="0" fill="#052016" stroke="#0C3827" stroke-width="1" x="634.0404663085938" y="252.08872985839844" width="43.921112060546875" height="16.91545581817627"/><rect rx="0" fill="#052016" stroke="#0C3827" stroke-width="1" x="833.5653076171875" y="311.50750732421875" width="49.924781799316406" height="16.91545581817627"/><rect rx="0" fill="#052016" stroke="#0C3827" stroke-width="1" x="584.6349487304688" y="390.8757629394531" width="49.924781799316406" height="16.91545581817627"/><rect rx="0" fill="#052016" stroke="#0C3827" stroke-width="1" x="680.8912963867188" y="473.4646911621094" width="79.84222412109375" height="16.91545581817627"/><rect rx="0" fill="#052016" stroke="#0C3827" stroke-width="1" x="1012.2168579101562" y="160.47122192382812" width="55.92844772338867" height="16.91545581817627"/></g><g><text font-size="10px" fill="#d4b483" text-anchor="middle" alignment-baseline="middle" font-family="JetBrains Mono, monospace" x="1088.563952002183" y="352.6370680177336">5.1V/5A USB-C</text><text font-size="10px" fill="#d4b483" text-anchor="middle" alignment-baseline="middle" font-family="JetBrains Mono, monospace" x="656.0010269402399" y="261.05095635045615">12V DC</text><text font-size="10px" fill="#E0F2E9" text-anchor="middle" alignment-baseline="middle" font-family="JetBrains Mono, monospace" x="858.5277050958434" y="320.4697444473445">USB 3.0</text><text font-size="10px" fill="#E0F2E9" text-anchor="middle" alignment-baseline="middle" font-family="JetBrains Mono, monospace" x="609.5973558374957" y="399.83798442040586">USB 2.0</text><text font-size="10px" fill="#d4b483" text-anchor="middle" alignment-baseline="middle" font-family="JetBrains Mono, monospace" x="720.8123506774099" y="482.4269505256566">USB Power 5V</text><text font-size="10px" fill="#E0F2E9" text-anchor="middle" alignment-baseline="middle" font-family="JetBrains Mono, monospace" x="1040.1810266757525" y="169.43345861416017">Ethernet</text></g><g><g transform="translate(991.5300306609387,280.2703732016536)"><rect width="70" height="70" x="-35" y="-35" rx="2" fill="#052016" stroke="#E0F2E9" stroke-width="1.5"/><rect width="64" height="64" x="-32" y="-32" rx="1" fill="none" stroke="#15803D" stroke-width="1"/><text y="-10" text-anchor="middle" font-family="JetBrains Mono, monospace" font-weight="bold" font-size="9px" fill="#4ADE80">MCU</text><text y="10" text-anchor="middle" fill="#E0F2E9" font-size="11px" font-weight="bold" style="pointer-events: none;"><tspan x="0" y="10" dy="0em">Raspberry</tspan><tspan x="0" y="10" dy="1.1em">Pi 5</tspan></text></g><g transform="translate(493.6693321442433,439.0068531477762)"><rect width="70" height="70" x="-35" y="-35" rx="2" fill="#052016" stroke="#E0F2E9" stroke-width="1.5"/><rect width="64" height="64" x="-32" y="-32" rx="1" fill="none" stroke="#15803D" stroke-width="1"/><text y="-10" text-anchor="middle" font-family="JetBrains Mono, monospace" font-weight="bold" font-size="9px" fill="#4ADE80">SENSOR</text><text y="10" text-anchor="middle" fill="#E0F2E9" font-size="11px" font-weight="bold" style="pointer-events: none;"><tspan x="0" y="10" dy="0em">USB Camera</tspan><tspan x="0" y="10" dy="1.1em">(OV5640)</tspan></text></g><g transform="translate(725.5253795307481,360.66911569303545)"><rect width="70" height="70" x="-35" y="-35" rx="2" fill="#052016" stroke="#E0F2E9" stroke-width="1.5"/><rect width="64" height="64" x="-32" y="-32" rx="1" fill="none" stroke="#15803D" stroke-width="1"/><text y="-10" text-anchor="middle" font-family="JetBrains Mono, monospace" font-weight="bold" font-size="9px" fill="#4ADE80">MODULE</text><text y="10" text-anchor="middle" fill="#E0F2E9" font-size="11px" font-weight="bold" style="pointer-events: none;"><tspan x="0" y="10" dy="0em">Powered</tspan><tspan x="0" y="10" dy="1.1em">USB 3.0</tspan><tspan x="0" y="10" dy="2.2em">Hub</tspan></text></g><g transform="translate(1194.6637160163243,1175.2780652737497)"><rect width="70" height="70" x="-35" y="-35" rx="2" fill="#052016" stroke="#E0F2E9" stroke-width="1.5"/><rect width="64" height="64" x="-32" y="-32" rx="1" fill="none" stroke="#15803D" stroke-width="1"/><text y="-10" text-anchor="middle" font-family="JetBrains Mono, monospace" font-weight="bold" font-size="9px" fill="#4ADE80">OTHER</text><text y="10" text-anchor="middle" fill="#E0F2E9" font-size="11px" font-weight="bold" style="pointer-events: none;"><tspan x="0" y="10" dy="0em">Foam Mat</tspan><tspan x="0" y="10" dy="1.1em">(2x2m)</tspan></text></g><g transform="translate(-179.0835958133178,376.59992877084204)"><rect width="70" height="70" x="-35" y="-35" rx="2" fill="#052016" stroke="#E0F2E9" stroke-width="1.5"/><rect width="64" height="64" x="-32" y="-32" rx="1" fill="none" stroke="#15803D" stroke-width="1"/><text y="-10" text-anchor="middle" font-family="JetBrains Mono, monospace" font-weight="bold" font-size="9px" fill="#4ADE80">OTHER</text><text y="10" text-anchor="middle" fill="#E0F2E9" font-size="11px" font-weight="bold" style="pointer-events: none;"><tspan x="0" y="10" dy="0em">Foam</tspan><tspan x="0" y="10" dy="1.1em">Borders</tspan><tspan x="0" y="10" dy="2.2em">(10cm)</tspan></text></g><g transform="translate(1694.6451584578165,135.31949458300272)"><rect width="70" height="70" x="-35" y="-35" rx="2" fill="#052016" stroke="#E0F2E9" stroke-width="1.5"/><rect width="64" height="64" x="-32" y="-32" rx="1" fill="none" stroke="#15803D" stroke-width="1"/><text y="-10" text-anchor="middle" font-family="JetBrains Mono, monospace" font-weight="bold" font-size="9px" fill="#4ADE80">OTHER</text><text y="10" text-anchor="middle" fill="#E0F2E9" font-size="11px" font-weight="bold" style="pointer-events: none;"><tspan x="0" y="10" dy="0em">Soft Foam</tspan><tspan x="0" y="10" dy="1.1em">Safety</tspan><tspan x="0" y="10" dy="2.2em">Barrier</tspan></text></g><g transform="translate(381.11259636508476,1268.4329438517475)"><rect width="70" height="70" x="-35" y="-35" rx="2" fill="#052016" stroke="#E0F2E9" stroke-width="1.5"/><rect width="64" height="64" x="-32" y="-32" rx="1" fill="none" stroke="#15803D" stroke-width="1"/><text y="-10" text-anchor="middle" font-family="JetBrains Mono, monospace" font-weight="bold" font-size="9px" fill="#4ADE80">OTHER</text><text y="10" text-anchor="middle" fill="#E0F2E9" font-size="11px" font-weight="bold" style="pointer-events: none;"><tspan x="0" y="10" dy="0em">Wood/PVC</tspan><tspan x="0" y="10" dy="1.1em">Frame</tspan></text></g><g transform="translate(234.6589241872386,-358.95325606653336)"><rect width="70" height="70" x="-35" y="-35" rx="2" fill="#052016" stroke="#E0F2E9" stroke-width="1.5"/><rect width="64" height="64" x="-32" y="-32" rx="1" fill="none" stroke="#15803D" stroke-width="1"/><text y="-10" text-anchor="middle" font-family="JetBrains Mono, monospace" font-weight="bold" font-size="9px" fill="#4ADE80">OTHER</text><text y="10" text-anchor="middle" fill="#E0F2E9" font-size="11px" font-weight="bold" style="pointer-events: none;"><tspan x="0" y="10" dy="0em">Overhead</tspan><tspan x="0" y="10" dy="1.1em">Camera</tspan><tspan x="0" y="10" dy="2.2em">Mount</tspan></text></g><g transform="translate(1185.5978733434272,425.0037628338136)"><rect width="70" height="70" x="-35" y="-35" rx="2" fill="#052016" stroke="#E0F2E9" stroke-width="1.5"/><rect width="64" height="64" x="-32" y="-32" rx="1" fill="none" stroke="#15803D" stroke-width="1"/><text y="-10" text-anchor="middle" font-family="JetBrains Mono, monospace" font-weight="bold" font-size="9px" fill="#4ADE80">POWER</text><text y="10" text-anchor="middle" fill="#E0F2E9" font-size="11px" font-weight="bold" style="pointer-events: none;"><tspan x="0" y="10" dy="0em">Raspberry</tspan><tspan x="0" y="10" dy="1.1em">Pi 5 Power</tspan><tspan x="0" y="10" dy="2.2em">Supply</tspan><tspan x="0" y="10" dy="3.3000000000000003em">(27W</tspan><tspan x="0" y="10" dy="4.4em">USB-C)</tspan></text></g><g transform="translate(586.4766743497318,161.43279700787687)"><rect width="70" height="70" x="-35" y="-35" rx="2" fill="#052016" stroke="#E0F2E9" stroke-width="1.5"/><rect width="64" height="64" x="-32" y="-32" rx="1" fill="none" stroke="#15803D" stroke-width="1"/><text y="-10" text-anchor="middle" font-family="JetBrains Mono, monospace" font-weight="bold" font-size="9px" fill="#4ADE80">POWER</text><text y="10" text-anchor="middle" fill="#E0F2E9" font-size="11px" font-weight="bold" style="pointer-events: none;"><tspan x="0" y="10" dy="0em">USB Hub</tspan><tspan x="0" y="10" dy="1.1em">Power</tspan><tspan x="0" y="10" dy="2.2em">Supply</tspan></text></g><g transform="translate(1088.8320226905662,58.59654402666673)"><rect width="70" height="70" x="-35" y="-35" rx="2" fill="#052016" stroke="#E0F2E9" stroke-width="1.5"/><rect width="64" height="64" x="-32" y="-32" rx="1" fill="none" stroke="#15803D" stroke-width="1"/><text y="-10" text-anchor="middle" font-family="JetBrains Mono, monospace" font-weight="bold" font-size="9px" fill="#4ADE80">MODULE</text><text y="10" text-anchor="middle" fill="#E0F2E9" font-size="11px" font-weight="bold" style="pointer-events: none;"><tspan x="0" y="10" dy="0em">5-Port</tspan><tspan x="0" y="10" dy="1.1em">Ethernet</tspan><tspan x="0" y="10" dy="2.2em">Switch</tspan></text></g><g transform="translate(716.0993218240717,604.1847853582777)"><rect width="70" height="70" x="-35" y="-35" rx="2" fill="#052016" stroke="#E0F2E9" stroke-width="1.5"/><rect width="64" height="64" x="-32" y="-32" rx="1" fill="none" stroke="#15803D" stroke-width="1"/><text y="-10" text-anchor="middle" font-family="JetBrains Mono, monospace" font-weight="bold" font-size="9px" fill="#4ADE80">OTHER</text><text y="10" text-anchor="middle" fill="#E0F2E9" font-size="11px" font-weight="bold" style="pointer-events: none;"><tspan x="0" y="10" dy="0em">Robot USB</tspan><tspan x="0" y="10" dy="1.1em">Charging</tspan><tspan x="0" y="10" dy="2.2em">Cables</tspan><tspan x="0" y="10" dy="3.3000000000000003em">(x2)</tspan></text></g></g></g><defs><marker id="arrow-data" viewBox="0 -5 10 10" refX="9" refY="0" markerWidth="6" markerHeight="6" orient="auto"><path d="M0,-5L10,0L0,5" fill="#E0F2E9"/></marker><marker id="arrow-power" viewBox="0 -5 10 10" refX="9" refY="0" markerWidth="6" markerHeight="6" orient="auto"><path d="M0,-5L10,0L0,5" fill="#d4b483"/></marker><pattern id="grid" width="40" height="40" patternUnits="userSpaceOnUse"><path d="M 40 0 L 0 0 0 40" fill="none" stroke="#0C3827" stroke-width="1"/></pattern></defs></svg>