<?xml version="1.0" standalone="no"?>
<svg xmlns:xlink="http://www.w3.org/1999/xlink" xmlns="http://www.w3.org/2000/svg" id="hardware-graph-svg" class="w-full h-full cursor-grab active:cursor-grabbing"><rect width="100%" height="100%" fill="url(#grid)"/><g><g><path stroke="#d4b483" stroke-width="1.5" stroke-dasharray="4,4" marker-end="url(#arrow-power)" fill="none" d="M 873.2445494623139 139.12817292966642 L 1049.6314571037242 139.12817292966642 L 1049.6314571037242 -162.70766871136334 L 1187.0183647451342 -162.70766871136334"/><path stroke="#d4b483" stroke-width="1.5" stroke-dasharray="4,4" marker-end="url(#arrow-power)" fill="none" d="M 873.2445494623139 139.12817292966642 L 873.2445494623139 249.3451438651835 L 980.6093385348203 249.3451438651835 L 980.6093385348203 320.56211480070056"/><path stroke="#d4b483" stroke-width="1.5" stroke-dasharray="4,4" marker-end="url(#arrow-power)" fill="none" d="M 873.2445494623139 139.12817292966642 L 770.084689562188 139.12817292966642 L 770.084689562188 -55.1817217980885 L 705.9248296620623 -55.1817217980885"/><path stroke="#d4b483" stroke-width="1.5" stroke-dasharray="4,4" marker-end="url(#arrow-power)" fill="none" d="M 873.2445494623139 139.12817292966642 L 873.2445494623139 332.6078068955697 L 667.7684091056651 332.6078068955697 L 667.7684091056651 487.08744086147294"/><path stroke="#d4b483" stroke-width="1.5" stroke-dasharray="4,4" marker-end="url(#arrow-power)" fill="none" d="M 1226.0183647451342 -162.70766871136334 L 1118.0352745562482 -162.70766871136334 L 1118.0352745562482 -58.035525342744904 L 1049.0521843673619 -58.035525342744904"/><path stroke="#d4b483" stroke-width="1.5" stroke-dasharray="4,4" marker-end="url(#arrow-power)" fill="none" d="M 980.6093385348203 359.56211480070056 L 980.6093385348203 150.76329472897783 L 1010.052184367362 150.76329472897783 L 1010.052184367362 -19.035525342744904"/><path stroke="#E0F2E9" stroke-width="2" stroke-dasharray="0" marker-end="url(#arrow-data)" fill="none" d="M 1002.552184367362 -58.035525342744904 L 1002.552184367362 35.487194984793206 L 1112.3809688062688 35.487194984793206 L 1112.3809688062688 120.00991531233132"/><path stroke="#E0F2E9" stroke-width="2" stroke-dasharray="0" marker-end="url(#arrow-data)" fill="none" d="M 1002.552184367362 -58.035525342744904 L 1002.552184367362 -207.97485187307248 L 1052.0298156015308 -207.97485187307248 L 1052.0298156015308 -288.91417840340006"/><path stroke="#E0F2E9" stroke-width="2" stroke-dasharray="0" marker-end="url(#arrow-data)" fill="none" d="M 1010.052184367362 -65.5355253427449 L 1154.1883555504655 -65.5355253427449 L 1154.1883555504655 54.356264223704805 L 1289.324526733569 54.356264223704805"/><path stroke="#E0F2E9" stroke-width="2" stroke-dasharray="0" marker-end="url(#arrow-data)" fill="none" d="M 1010.052184367362 -65.5355253427449 L 907.1188580726197 -65.5355253427449 L 907.1188580726197 -227.2592274429061 L 873.1855317778774 -227.2592274429061"/><path stroke="#d4b483" stroke-width="1.5" stroke-dasharray="4,4" marker-end="url(#arrow-power)" fill="none" d="M 1017.552184367362 -58.035525342744904 L 1017.552184367362 65.4871949847932 L 1112.3809688062688 65.4871949847932 L 1112.3809688062688 120.00991531233132"/><path stroke="#d4b483" stroke-width="1.5" stroke-dasharray="4,4" marker-end="url(#arrow-power)" fill="none" d="M 1017.552184367362 -58.035525342744904 L 1017.552184367362 -177.97485187307248 L 1052.0298156015308 -177.97485187307248 L 1052.0298156015308 -288.91417840340006"/><path stroke="#d4b483" stroke-width="1.5" stroke-dasharray="4,4" marker-end="url(#arrow-power)" fill="none" d="M 1010.052184367362 -50.535525342744904 L 1184.1883555504655 -50.535525342744904 L 1184.1883555504655 54.356264223704805 L 1289.324526733569 54.356264223704805"/><path stroke="#d4b483" stroke-width="1.5" stroke-dasharray="4,4" marker-end="url(#arrow-power)" fill="none" d="M 1010.052184367362 -50.535525342744904 L 937.1188580726197 -50.535525342744904 L 937.1188580726197 -227.2592274429061 L 873.1855317778774 -227.2592274429061"/><path stroke="#E0F2E9" stroke-width="2" stroke-dasharray="0" marker-end="url(#arrow-data)" fill="none" d="M 316.7622894891037 348.23816035392196 L 477.0212281222281 348.23816035392196 L 477.0212281222281 182.9754814589072 L 598.2801667553525 182.9754814589072"/><path stroke="#E0F2E9" stroke-width="2" stroke-dasharray="0" marker-end="url(#arrow-data)" fill="none" d="M 637.2801667553525 182.9754814589072 L 823.6661755613572 182.9754814589072 L 823.6661755613572 -58.035525342744904 L 971.052184367362 -58.035525342744904"/><path stroke="#d4b483" stroke-width="1.5" stroke-dasharray="4,4" marker-end="url(#arrow-power)" fill="none" d="M 667.7684091056651 526.0874408614729 L 667.7684091056651 692.3600238226165 L 477.5001444268676 692.3600238226165 L 477.5001444268676 819.6326067837603"/><path stroke="#E0F2E9" stroke-width="2" stroke-dasharray="0" marker-end="url(#arrow-data)" fill="none" d="M 228.32164178415064 925.8084142030889 L 352.9108931055091 925.8084142030889 L 352.9108931055091 858.6326067837603 L 438.5001444268676 858.6326067837603"/><path stroke="#E0F2E9" stroke-width="2" stroke-dasharray="0" marker-end="url(#arrow-data)" fill="none" d="M 619.5959195067265 1093.690974505168 L 619.5959195067265 976.1617906444642 L 477.5001444268676 976.1617906444642 L 477.5001444268676 897.6326067837603"/><path stroke="#E0F2E9" stroke-width="2" stroke-dasharray="0" marker-end="url(#arrow-data)" fill="none" d="M 380.2738647663325 1111.5607941338092 L 380.2738647663325 985.0967004587847 L 477.5001444268676 985.0967004587847 L 477.5001444268676 897.6326067837603"/><path stroke="#E0F2E9" stroke-width="2" stroke-dasharray="0" marker-end="url(#arrow-data)" fill="none" d="M 726.7916736221448 878.9749992982208 L 602.1459090245062 878.9749992982208 L 602.1459090245062 858.6326067837603 L 516.5001444268676 858.6326067837603"/><path stroke="#E0F2E9" stroke-width="2" stroke-dasharray="0" marker-end="url(#arrow-data)" fill="none" d="M 477.5001444268676 858.6326067837603 L 370.66686922969905 858.6326067837603 L 370.66686922969905 650.4443026757396 L 302.83359403253047 650.4443026757396"/><path stroke="#E0F2E9" stroke-width="2" stroke-dasharray="0" marker-end="url(#arrow-data)" fill="none" d="M 263.83359403253047 650.4443026757396 L 263.83359403253047 499.3412315148307 L 316.7622894891037 499.3412315148307 L 316.7622894891037 387.23816035392196"/><path stroke="#E0F2E9" stroke-width="2" stroke-dasharray="0" marker-end="url(#arrow-data)" fill="none" d="M 1310.9990947178774 293.6623539721984 L 1310.9990947178774 117.81341431472674 L 1010.052184367362 117.81341431472674 L 1010.052184367362 -19.035525342744904"/><path stroke="#d4b483" stroke-width="1.5" stroke-dasharray="4,4" marker-end="url(#arrow-power)" fill="none" d="M 1310.9990947178774 293.6623539721984 L 1310.9990947178774 65.47734263041752 L 1226.0183647451342 65.47734263041752 L 1226.0183647451342 -123.70766871136334"/><path stroke="#d4b483" stroke-width="1.5" stroke-dasharray="4,4" marker-end="url(#arrow-power)" fill="none" d="M 1310.9990947178774 293.6623539721984 L 1145.8042166263488 293.6623539721984 L 1145.8042166263488 359.56211480070056 L 1019.6093385348203 359.56211480070056"/></g><g><rect rx="0" fill="#052016" stroke="#0C3827" stroke-width="1" x="1024.6314697265625" y="-21.039749145507812" width="50" height="17"/><rect rx="0" fill="#052016" stroke="#0C3827" stroke-width="1" x="901.9269409179688" y="240.0951385498047" width="50" height="17"/><rect rx="0" fill="#052016" stroke="#0C3827" stroke-width="1" x="745.084716796875" y="32.72322463989258" width="50" height="17"/><rect rx="0" fill="#052016" stroke="#0C3827" stroke-width="1" x="745.5064697265625" y="323.3578186035156" width="50" height="17"/><rect rx="0" fill="#052016" stroke="#0C3827" stroke-width="1" x="1096.0352783203125" y="-119.62159729003906" width="44" height="17"/><rect rx="0" fill="#052016" stroke="#0C3827" stroke-width="1" x="973.3306884765625" y="141.51329040527344" width="44" height="17"/><rect rx="0" fill="#052016" stroke="#0C3827" stroke-width="1" x="1033.216552734375" y="26.237194061279297" width="56" height="17"/><rect rx="0" fill="#052016" stroke="#0C3827" stroke-width="1" x="1003.041015625" y="-217.224853515625" width="56" height="17"/><rect rx="0" fill="#052016" stroke="#0C3827" stroke-width="1" x="1126.1883544921875" y="-11.089630126953125" width="56" height="17"/><rect rx="0" fill="#052016" stroke="#0C3827" stroke-width="1" x="879.1188354492188" y="-151.89736938476562" width="56" height="17"/><rect rx="0" fill="#052016" stroke="#0C3827" stroke-width="1" x="1039.216552734375" y="56.23719787597656" width="44" height="17"/><rect rx="0" fill="#052016" stroke="#0C3827" stroke-width="1" x="1009.041015625" y="-187.224853515625" width="44" height="17"/><rect rx="0" fill="#052016" stroke="#0C3827" stroke-width="1" x="1162.1883544921875" y="-11.089630126953125" width="44" height="17"/><rect rx="0" fill="#052016" stroke="#0C3827" stroke-width="1" x="915.1188354492188" y="-151.89736938476562" width="44" height="17"/><rect rx="0" fill="#052016" stroke="#0C3827" stroke-width="1" x="449.021240234375" y="256.3568115234375" width="56" height="17"/><rect rx="0" fill="#052016" stroke="#0C3827" stroke-width="1" x="747.6661987304688" y="53.21997833251953" width="152" height="17"/><rect rx="0" fill="#052016" stroke="#0C3827" stroke-width="1" x="541.63427734375" y="683.1100463867188" width="62" height="17"/><rect rx="0" fill="#052016" stroke="#0C3827" stroke-width="1" x="309.910888671875" y="882.9705200195312" width="86" height="17"/><rect rx="0" fill="#052016" stroke="#0C3827" stroke-width="1" x="505.54803466796875" y="966.9118041992188" width="86" height="17"/><rect rx="0" fill="#052016" stroke="#0C3827" stroke-width="1" x="385.8869934082031" y="975.8466796875" width="86" height="17"/><rect rx="0" fill="#052016" stroke="#0C3827" stroke-width="1" x="559.1459350585938" y="859.5538330078125" width="86" height="17"/><rect rx="0" fill="#052016" stroke="#0C3827" stroke-width="1" x="327.6668701171875" y="745.2884521484375" width="86" height="17"/><rect rx="0" fill="#052016" stroke="#0C3827" stroke-width="1" x="235.29794311523438" y="490.0912170410156" width="110" height="17"/><rect rx="0" fill="#052016" stroke="#0C3827" stroke-width="1" x="1108.525634765625" y="108.56341552734375" width="104" height="17"/><rect rx="0" fill="#052016" stroke="#0C3827" stroke-width="1" x="1237.5087890625" y="56.22734069824219" width="62" height="17"/><rect rx="0" fill="#052016" stroke="#0C3827" stroke-width="1" x="1114.80419921875" y="317.36224365234375" width="62" height="17"/></g><g><text font-size="10px" fill="#d4b483" text-anchor="middle" alignment-baseline="middle" font-family="JetBrains Mono, monospace" x="1049.6314571037242" y="-11.78974789084846">110V AC</text><text font-size="10px" fill="#d4b483" text-anchor="middle" alignment-baseline="middle" font-family="JetBrains Mono, monospace" x="926.9269439985671" y="249.3451438651835">110V AC</text><text font-size="10px" fill="#d4b483" text-anchor="middle" alignment-baseline="middle" font-family="JetBrains Mono, monospace" x="770.084689562188" y="41.97322556578896">110V AC</text><text font-size="10px" fill="#d4b483" text-anchor="middle" alignment-baseline="middle" font-family="JetBrains Mono, monospace" x="770.5064792839895" y="332.6078068955697">110V AC</text><text font-size="10px" fill="#d4b483" text-anchor="middle" alignment-baseline="middle" font-family="JetBrains Mono, monospace" x="1118.0352745562482" y="-110.37159702705412">48V DC</text><text font-size="10px" fill="#d4b483" text-anchor="middle" alignment-baseline="middle" font-family="JetBrains Mono, monospace" x="995.3307614510911" y="150.76329472897783">48V DC</text><text font-size="10px" fill="#E0F2E9" text-anchor="middle" alignment-baseline="middle" font-family="JetBrains Mono, monospace" x="1061.2165765868153" y="35.487194984793206">Step/Dir</text><text font-size="10px" fill="#E0F2E9" text-anchor="middle" alignment-baseline="middle" font-family="JetBrains Mono, monospace" x="1031.0409999844464" y="-207.97485187307248">Step/Dir</text><text font-size="10px" fill="#E0F2E9" text-anchor="middle" alignment-baseline="middle" font-family="JetBrains Mono, monospace" x="1154.1883555504655" y="-1.8396305595200495">Step/Dir</text><text font-size="10px" fill="#E0F2E9" text-anchor="middle" alignment-baseline="middle" font-family="JetBrains Mono, monospace" x="907.1188580726197" y="-142.6473763928255">Step/Dir</text><text font-size="10px" fill="#d4b483" text-anchor="middle" alignment-baseline="middle" font-family="JetBrains Mono, monospace" x="1061.2165765868153" y="65.4871949847932">48V DC</text><text font-size="10px" fill="#d4b483" text-anchor="middle" alignment-baseline="middle" font-family="JetBrains Mono, monospace" x="1031.0409999844464" y="-177.97485187307248">48V DC</text><text font-size="10px" fill="#d4b483" text-anchor="middle" alignment-baseline="middle" font-family="JetBrains Mono, monospace" x="1184.1883555504655" y="-1.8396305595200495">48V DC</text><text font-size="10px" fill="#d4b483" text-anchor="middle" alignment-baseline="middle" font-family="JetBrains Mono, monospace" x="937.1188580726197" y="-142.6473763928255">48V DC</text><text font-size="10px" fill="#E0F2E9" text-anchor="middle" alignment-baseline="middle" font-family="JetBrains Mono, monospace" x="477.0212281222281" y="265.60682090641455">PCIe Bus</text><text font-size="10px" fill="#E0F2E9" text-anchor="middle" alignment-baseline="middle" font-family="JetBrains Mono, monospace" x="823.6661755613572" y="62.46997805808115">Parallel Port/Encoder In</text><text font-size="10px" fill="#d4b483" text-anchor="middle" alignment-baseline="middle" font-family="JetBrains Mono, monospace" x="572.6342767662663" y="692.3600238226165">5V/12V DC</text><text font-size="10px" fill="#E0F2E9" text-anchor="middle" alignment-baseline="middle" font-family="JetBrains Mono, monospace" x="352.9108931055091" y="892.2205104934246">Analog Signal</text><text font-size="10px" fill="#E0F2E9" text-anchor="middle" alignment-baseline="middle" font-family="JetBrains Mono, monospace" x="548.5480319667971" y="976.1617906444642">Analog Signal</text><text font-size="10px" fill="#E0F2E9" text-anchor="middle" alignment-baseline="middle" font-family="JetBrains Mono, monospace" x="428.88700459660004" y="985.0967004587847">Analog Signal</text><text font-size="10px" fill="#E0F2E9" text-anchor="middle" alignment-baseline="middle" font-family="JetBrains Mono, monospace" x="602.1459090245062" y="868.8038030409905">Analog Signal</text><text font-size="10px" fill="#E0F2E9" text-anchor="middle" alignment-baseline="middle" font-family="JetBrains Mono, monospace" x="370.66686922969905" y="754.5384547297499">Analog Output</text><text font-size="10px" fill="#E0F2E9" text-anchor="middle" alignment-baseline="middle" font-family="JetBrains Mono, monospace" x="290.2979417608171" y="499.3412315148307">USB/PCIe/Ethernet</text><text font-size="10px" fill="#E0F2E9" text-anchor="middle" alignment-baseline="middle" font-family="JetBrains Mono, monospace" x="1160.5256395426197" y="117.81341431472674">Safety Interlock</text><text font-size="10px" fill="#d4b483" text-anchor="middle" alignment-baseline="middle" font-family="JetBrains Mono, monospace" x="1268.5087297315058" y="65.47734263041752">Power Cut</text><text font-size="10px" fill="#d4b483" text-anchor="middle" alignment-baseline="middle" font-family="JetBrains Mono, monospace" x="1145.8042166263488" y="326.6122343864495">Power Cut</text></g><g><g transform="translate(316.7622894891037,348.23816035392196)"><rect width="70" height="70" x="-35" y="-35" rx="2" fill="#052016" stroke="#E0F2E9" stroke-width="1.5"/><rect width="64" height="64" x="-32" y="-32" rx="1" fill="none" stroke="#15803D" stroke-width="1"/><text y="-10" text-anchor="middle" font-family="JetBrains Mono, monospace" font-weight="bold" font-size="9px" fill="#4ADE80">MCU</text><text y="10" text-anchor="middle" fill="#E0F2E9" font-size="11px" font-weight="bold" style="pointer-events: none;"><tspan x="0" y="10" dy="0em">Industrial</tspan><tspan x="0" y="10" dy="1.1em">Control PC</tspan></text></g><g transform="translate(1112.3809688062688,159.00991531233132)"><rect width="70" height="70" x="-35" y="-35" rx="2" fill="#052016" stroke="#E0F2E9" stroke-width="1.5"/><rect width="64" height="64" x="-32" y="-32" rx="1" fill="none" stroke="#15803D" stroke-width="1"/><text y="-10" text-anchor="middle" font-family="JetBrains Mono, monospace" font-weight="bold" font-size="9px" fill="#4ADE80">ACTUATOR</text><text y="10" text-anchor="middle" fill="#E0F2E9" font-size="11px" font-weight="bold" style="pointer-events: none;"><tspan x="0" y="10" dy="0em">NEMA23</tspan><tspan x="0" y="10" dy="1.1em">Stepper</tspan><tspan x="0" y="10" dy="2.2em">Motor</tspan><tspan x="0" y="10" dy="3.3000000000000003em">(Front</tspan><tspan x="0" y="10" dy="4.4em">Left)</tspan></text></g><g transform="translate(1052.0298156015308,-327.91417840340006)"><rect width="70" height="70" x="-35" y="-35" rx="2" fill="#052016" stroke="#E0F2E9" stroke-width="1.5"/><rect width="64" height="64" x="-32" y="-32" rx="1" fill="none" stroke="#15803D" stroke-width="1"/><text y="-10" text-anchor="middle" font-family="JetBrains Mono, monospace" font-weight="bold" font-size="9px" fill="#4ADE80">ACTUATOR</text><text y="10" text-anchor="middle" fill="#E0F2E9" font-size="11px" font-weight="bold" style="pointer-events: none;"><tspan x="0" y="10" dy="0em">NEMA23</tspan><tspan x="0" y="10" dy="1.1em">Stepper</tspan><tspan x="0" y="10" dy="2.2em">Motor</tspan><tspan x="0" y="10" dy="3.3000000000000003em">(Front</tspan><tspan x="0" y="10" dy="4.4em">Right)</tspan></text></g><g transform="translate(1328.324526733569,54.356264223704805)"><rect width="70" height="70" x="-35" y="-35" rx="2" fill="#052016" stroke="#E0F2E9" stroke-width="1.5"/><rect width="64" height="64" x="-32" y="-32" rx="1" fill="none" stroke="#15803D" stroke-width="1"/><text y="-10" text-anchor="middle" font-family="JetBrains Mono, monospace" font-weight="bold" font-size="9px" fill="#4ADE80">ACTUATOR</text><text y="10" text-anchor="middle" fill="#E0F2E9" font-size="11px" font-weight="bold" style="pointer-events: none;"><tspan x="0" y="10" dy="0em">NEMA23</tspan><tspan x="0" y="10" dy="1.1em">Stepper</tspan><tspan x="0" y="10" dy="2.2em">Motor</tspan><tspan x="0" y="10" dy="3.3000000000000003em">(Back</tspan><tspan x="0" y="10" dy="4.4em">Left)</tspan></text></g><g transform="translate(834.1855317778774,-227.2592274429061)"><rect width="70" height="70" x="-35" y="-35" rx="2" fill="#052016" stroke="#E0F2E9" stroke-width="1.5"/><rect width="64" height="64" x="-32" y="-32" rx="1" fill="none" stroke="#15803D" stroke-width="1"/><text y="-10" text-anchor="middle" font-family="JetBrains Mono, monospace" font-weight="bold" font-size="9px" fill="#4ADE80">ACTUATOR</text><text y="10" text-anchor="middle" fill="#E0F2E9" font-size="11px" font-weight="bold" style="pointer-events: none;"><tspan x="0" y="10" dy="0em">NEMA23</tspan><tspan x="0" y="10" dy="1.1em">Stepper</tspan><tspan x="0" y="10" dy="2.2em">Motor</tspan><tspan x="0" y="10" dy="3.3000000000000003em">(Back</tspan><tspan x="0" y="10" dy="4.4em">Right)</tspan></text></g><g transform="translate(1010.052184367362,-58.035525342744904)"><rect width="70" height="70" x="-35" y="-35" rx="2" fill="#052016" stroke="#E0F2E9" stroke-width="1.5"/><rect width="64" height="64" x="-32" y="-32" rx="1" fill="none" stroke="#15803D" stroke-width="1"/><text y="-10" text-anchor="middle" font-family="JetBrains Mono, monospace" font-weight="bold" font-size="9px" fill="#4ADE80">MODULE</text><text y="10" text-anchor="middle" fill="#E0F2E9" font-size="11px" font-weight="bold" style="pointer-events: none;"><tspan x="0" y="10" dy="0em">4-Axis</tspan><tspan x="0" y="10" dy="1.1em">Stepper</tspan><tspan x="0" y="10" dy="2.2em">Driver Box</tspan></text></g><g transform="translate(1310.9990947178774,293.6623539721984)"><rect width="70" height="70" x="-35" y="-35" rx="2" fill="#052016" stroke="#E0F2E9" stroke-width="1.5"/><rect width="64" height="64" x="-32" y="-32" rx="1" fill="none" stroke="#15803D" stroke-width="1"/><text y="-10" text-anchor="middle" font-family="JetBrains Mono, monospace" font-weight="bold" font-size="9px" fill="#4ADE80">OTHER</text><text y="10" text-anchor="middle" fill="#E0F2E9" font-size="11px" font-weight="bold" style="pointer-events: none;"><tspan x="0" y="10" dy="0em">Emergency</tspan><tspan x="0" y="10" dy="1.1em">Stop</tspan><tspan x="0" y="10" dy="2.2em">Button</tspan></text></g><g transform="translate(228.32164178415064,925.8084142030889)"><rect width="70" height="70" x="-35" y="-35" rx="2" fill="#052016" stroke="#E0F2E9" stroke-width="1.5"/><rect width="64" height="64" x="-32" y="-32" rx="1" fill="none" stroke="#15803D" stroke-width="1"/><text y="-10" text-anchor="middle" font-family="JetBrains Mono, monospace" font-weight="bold" font-size="9px" fill="#4ADE80">SENSOR</text><text y="10" text-anchor="middle" fill="#E0F2E9" font-size="11px" font-weight="bold" style="pointer-events: none;"><tspan x="0" y="10" dy="0em">Inline</tspan><tspan x="0" y="10" dy="1.1em">Force</tspan><tspan x="0" y="10" dy="2.2em">Sensor</tspan><tspan x="0" y="10" dy="3.3000000000000003em">(FL, 500N)</tspan></text></g><g transform="translate(619.5959195067265,1093.690974505168)"><rect width="70" height="70" x="-35" y="-35" rx="2" fill="#052016" stroke="#E0F2E9" stroke-width="1.5"/><rect width="64" height="64" x="-32" y="-32" rx="1" fill="none" stroke="#15803D" stroke-width="1"/><text y="-10" text-anchor="middle" font-family="JetBrains Mono, monospace" font-weight="bold" font-size="9px" fill="#4ADE80">SENSOR</text><text y="10" text-anchor="middle" fill="#E0F2E9" font-size="11px" font-weight="bold" style="pointer-events: none;"><tspan x="0" y="10" dy="0em">Inline</tspan><tspan x="0" y="10" dy="1.1em">Force</tspan><tspan x="0" y="10" dy="2.2em">Sensor</tspan><tspan x="0" y="10" dy="3.3000000000000003em">(FR, 500N)</tspan></text></g><g transform="translate(380.2738647663325,1111.5607941338092)"><rect width="70" height="70" x="-35" y="-35" rx="2" fill="#052016" stroke="#E0F2E9" stroke-width="1.5"/><rect width="64" height="64" x="-32" y="-32" rx="1" fill="none" stroke="#15803D" stroke-width="1"/><text y="-10" text-anchor="middle" font-family="JetBrains Mono, monospace" font-weight="bold" font-size="9px" fill="#4ADE80">SENSOR</text><text y="10" text-anchor="middle" fill="#E0F2E9" font-size="11px" font-weight="bold" style="pointer-events: none;"><tspan x="0" y="10" dy="0em">Inline</tspan><tspan x="0" y="10" dy="1.1em">Force</tspan><tspan x="0" y="10" dy="2.2em">Sensor</tspan><tspan x="0" y="10" dy="3.3000000000000003em">(BL, 500N)</tspan></text></g><g transform="translate(726.7916736221448,878.9749992982208)"><rect width="70" height="70" x="-35" y="-35" rx="2" fill="#052016" stroke="#E0F2E9" stroke-width="1.5"/><rect width="64" height="64" x="-32" y="-32" rx="1" fill="none" stroke="#15803D" stroke-width="1"/><text y="-10" text-anchor="middle" font-family="JetBrains Mono, monospace" font-weight="bold" font-size="9px" fill="#4ADE80">SENSOR</text><text y="10" text-anchor="middle" fill="#E0F2E9" font-size="11px" font-weight="bold" style="pointer-events: none;"><tspan x="0" y="10" dy="0em">Inline</tspan><tspan x="0" y="10" dy="1.1em">Force</tspan><tspan x="0" y="10" dy="2.2em">Sensor</tspan><tspan x="0" y="10" dy="3.3000000000000003em">(BR, 500N)</tspan></text></g><g transform="translate(477.5001444268676,858.6326067837603)"><rect width="70" height="70" x="-35" y="-35" rx="2" fill="#052016" stroke="#E0F2E9" stroke-width="1.5"/><rect width="64" height="64" x="-32" y="-32" rx="1" fill="none" stroke="#15803D" stroke-width="1"/><text y="-10" text-anchor="middle" font-family="JetBrains Mono, monospace" font-weight="bold" font-size="9px" fill="#4ADE80">MODULE</text><text y="10" text-anchor="middle" fill="#E0F2E9" font-size="11px" font-weight="bold" style="pointer-events: none;"><tspan x="0" y="10" dy="0em">4-Channel</tspan><tspan x="0" y="10" dy="1.1em">Load Cell</tspan><tspan x="0" y="10" dy="2.2em">Amplifier</tspan><tspan x="0" y="10" dy="3.3000000000000003em">(HX711/Analog)</tspan></text></g><g transform="translate(263.83359403253047,650.4443026757396)"><rect width="70" height="70" x="-35" y="-35" rx="2" fill="#052016" stroke="#E0F2E9" stroke-width="1.5"/><rect width="64" height="64" x="-32" y="-32" rx="1" fill="none" stroke="#15803D" stroke-width="1"/><text y="-10" text-anchor="middle" font-family="JetBrains Mono, monospace" font-weight="bold" font-size="9px" fill="#4ADE80">MODULE</text><text y="10" text-anchor="middle" fill="#E0F2E9" font-size="11px" font-weight="bold" style="pointer-events: none;"><tspan x="0" y="10" dy="0em"/><tspan x="0" y="10" dy="1.1em">High-Resolution</tspan><tspan x="0" y="10" dy="2.2em">ADC Module</tspan></text></g><g transform="translate(2112.678124435983,202.43685727304248)"><rect width="70" height="70" x="-35" y="-35" rx="2" fill="#052016" stroke="#E0F2E9" stroke-width="1.5"/><rect width="64" height="64" x="-32" y="-32" rx="1" fill="none" stroke="#15803D" stroke-width="1"/><text y="-10" text-anchor="middle" font-family="JetBrains Mono, monospace" font-weight="bold" font-size="9px" fill="#4ADE80">OTHER</text><text y="10" text-anchor="middle" fill="#E0F2E9" font-size="11px" font-weight="bold" style="pointer-events: none;"><tspan x="0" y="10" dy="0em">80/20</tspan><tspan x="0" y="10" dy="1.1em">Aluminum</tspan><tspan x="0" y="10" dy="2.2em">Extrusion</tspan><tspan x="0" y="10" dy="3.3000000000000003em">Frame</tspan><tspan x="0" y="10" dy="4.4em">(6x6x3m)</tspan></text></g><g transform="translate(-359.5712550037741,1509.3276364197948)"><rect width="70" height="70" x="-35" y="-35" rx="2" fill="#052016" stroke="#E0F2E9" stroke-width="1.5"/><rect width="64" height="64" x="-32" y="-32" rx="1" fill="none" stroke="#15803D" stroke-width="1"/><text y="-10" text-anchor="middle" font-family="JetBrains Mono, monospace" font-weight="bold" font-size="9px" fill="#4ADE80">OTHER</text><text y="10" text-anchor="middle" fill="#E0F2E9" font-size="11px" font-weight="bold" style="pointer-events: none;"><tspan x="0" y="10" dy="0em">Cable</tspan><tspan x="0" y="10" dy="1.1em">Pulley &amp;</tspan><tspan x="0" y="10" dy="2.2em">Guide</tspan><tspan x="0" y="10" dy="3.3000000000000003em">System</tspan></text></g><g transform="translate(188.8700381232303,-941.4278886535614)"><rect width="70" height="70" x="-35" y="-35" rx="2" fill="#052016" stroke="#E0F2E9" stroke-width="1.5"/><rect width="64" height="64" x="-32" y="-32" rx="1" fill="none" stroke="#15803D" stroke-width="1"/><text y="-10" text-anchor="middle" font-family="JetBrains Mono, monospace" font-weight="bold" font-size="9px" fill="#4ADE80">OTHER</text><text y="10" text-anchor="middle" fill="#E0F2E9" font-size="11px" font-weight="bold" style="pointer-events: none;"><tspan x="0" y="10" dy="0em">Automatic</tspan><tspan x="0" y="10" dy="1.1em">Cable</tspan><tspan x="0" y="10" dy="2.2em">Tensioners</tspan></text></g><g transform="translate(1759.7896604014832,1409.2664996978992)"><rect width="70" height="70" x="-35" y="-35" rx="2" fill="#052016" stroke="#E0F2E9" stroke-width="1.5"/><rect width="64" height="64" x="-32" y="-32" rx="1" fill="none" stroke="#15803D" stroke-width="1"/><text y="-10" text-anchor="middle" font-family="JetBrains Mono, monospace" font-weight="bold" font-size="9px" fill="#4ADE80">OTHER</text><text y="10" text-anchor="middle" fill="#E0F2E9" font-size="11px" font-weight="bold" style="pointer-events: none;"><tspan x="0" y="10" dy="0em">Robot</tspan><tspan x="0" y="10" dy="1.1em">Harness</tspan><tspan x="0" y="10" dy="2.2em">with</tspan><tspan x="0" y="10" dy="3.3000000000000003em">Magnetic</tspan><tspan x="0" y="10" dy="4.4em">Breakaway</tspan></text></g><g transform="translate(-781.9982483615981,488.13358757815126)"><rect width="70" height="70" x="-35" y="-35" rx="2" fill="#052016" stroke="#E0F2E9" stroke-width="1.5"/><rect width="64" height="64" x="-32" y="-32" rx="1" fill="none" stroke="#15803D" stroke-width="1"/><text y="-10" text-anchor="middle" font-family="JetBrains Mono, monospace" font-weight="bold" font-size="9px" fill="#4ADE80">OTHER</text><text y="10" text-anchor="middle" fill="#E0F2E9" font-size="11px" font-weight="bold" style="pointer-events: none;"><tspan x="0" y="10" dy="0em"/><tspan x="0" y="10" dy="1.1em">High-Strength</tspan><tspan x="0" y="10" dy="2.2em">Dyneema</tspan><tspan x="0" y="10" dy="3.3000000000000003em">Cables</tspan></text></g><g transform="translate(1696.7122214121043,-693.0301578350796)"><rect width="70" height="70" x="-35" y="-35" rx="2" fill="#052016" stroke="#E0F2E9" stroke-width="1.5"/><rect width="64" height="64" x="-32" y="-32" rx="1" fill="none" stroke="#15803D" stroke-width="1"/><text y="-10" text-anchor="middle" font-family="JetBrains Mono, monospace" font-weight="bold" font-size="9px" fill="#4ADE80">OTHER</text><text y="10" text-anchor="middle" fill="#E0F2E9" font-size="11px" font-weight="bold" style="pointer-events: none;"><tspan x="0" y="10" dy="0em">Perimeter</tspan><tspan x="0" y="10" dy="1.1em">Safety</tspan><tspan x="0" y="10" dy="2.2em">Netting</tspan></text></g><g transform="translate(416.9886046243527,1946.717730021181)"><rect width="70" height="70" x="-35" y="-35" rx="2" fill="#052016" stroke="#E0F2E9" stroke-width="1.5"/><rect width="64" height="64" x="-32" y="-32" rx="1" fill="none" stroke="#15803D" stroke-width="1"/><text y="-10" text-anchor="middle" font-family="JetBrains Mono, monospace" font-weight="bold" font-size="9px" fill="#4ADE80">OTHER</text><text y="10" text-anchor="middle" fill="#E0F2E9" font-size="11px" font-weight="bold" style="pointer-events: none;"><tspan x="0" y="10" dy="0em"/><tspan x="0" y="10" dy="1.1em">High-Density</tspan><tspan x="0" y="10" dy="2.2em">Floor</tspan><tspan x="0" y="10" dy="3.3000000000000003em">Padding</tspan></text></g><g transform="translate(873.2445494623139,139.12817292966642)"><rect width="70" height="70" x="-35" y="-35" rx="2" fill="#052016" stroke="#E0F2E9" stroke-width="1.5"/><rect width="64" height="64" x="-32" y="-32" rx="1" fill="none" stroke="#15803D" stroke-width="1"/><text y="-10" text-anchor="middle" font-family="JetBrains Mono, monospace" font-weight="bold" font-size="9px" fill="#4ADE80">POWER</text><text y="10" text-anchor="middle" fill="#E0F2E9" font-size="11px" font-weight="bold" style="pointer-events: none;"><tspan x="0" y="10" dy="0em">AC Power</tspan><tspan x="0" y="10" dy="1.1em">Distribution</tspan><tspan x="0" y="10" dy="2.2em">Box</tspan></text></g><g transform="translate(1226.0183647451342,-162.70766871136334)"><rect width="70" height="70" x="-35" y="-35" rx="2" fill="#052016" stroke="#E0F2E9" stroke-width="1.5"/><rect width="64" height="64" x="-32" y="-32" rx="1" fill="none" stroke="#15803D" stroke-width="1"/><text y="-10" text-anchor="middle" font-family="JetBrains Mono, monospace" font-weight="bold" font-size="9px" fill="#4ADE80">POWER</text><text y="10" text-anchor="middle" fill="#E0F2E9" font-size="11px" font-weight="bold" style="pointer-events: none;"><tspan x="0" y="10" dy="0em">Stepper</tspan><tspan x="0" y="10" dy="1.1em">Motor</tspan><tspan x="0" y="10" dy="2.2em">Power</tspan><tspan x="0" y="10" dy="3.3000000000000003em">Supply</tspan><tspan x="0" y="10" dy="4.4em">(48V/10A)</tspan></text></g><g transform="translate(980.6093385348203,359.56211480070056)"><rect width="70" height="70" x="-35" y="-35" rx="2" fill="#052016" stroke="#E0F2E9" stroke-width="1.5"/><rect width="64" height="64" x="-32" y="-32" rx="1" fill="none" stroke="#15803D" stroke-width="1"/><text y="-10" text-anchor="middle" font-family="JetBrains Mono, monospace" font-weight="bold" font-size="9px" fill="#4ADE80">POWER</text><text y="10" text-anchor="middle" fill="#E0F2E9" font-size="11px" font-weight="bold" style="pointer-events: none;"><tspan x="0" y="10" dy="0em">Stepper</tspan><tspan x="0" y="10" dy="1.1em">Motor</tspan><tspan x="0" y="10" dy="2.2em">Power</tspan><tspan x="0" y="10" dy="3.3000000000000003em">Supply</tspan><tspan x="0" y="10" dy="4.4em">(48V/10A)</tspan></text></g><g transform="translate(666.9248296620623,-55.1817217980885)"><rect width="70" height="70" x="-35" y="-35" rx="2" fill="#052016" stroke="#E0F2E9" stroke-width="1.5"/><rect width="64" height="64" x="-32" y="-32" rx="1" fill="none" stroke="#15803D" stroke-width="1"/><text y="-10" text-anchor="middle" font-family="JetBrains Mono, monospace" font-weight="bold" font-size="9px" fill="#4ADE80">POWER</text><text y="10" text-anchor="middle" fill="#E0F2E9" font-size="11px" font-weight="bold" style="pointer-events: none;"><tspan x="0" y="10" dy="0em">Control PC</tspan><tspan x="0" y="10" dy="1.1em">Power</tspan><tspan x="0" y="10" dy="2.2em">Supply</tspan></text></g><g transform="translate(667.7684091056651,526.0874408614729)"><rect width="70" height="70" x="-35" y="-35" rx="2" fill="#052016" stroke="#E0F2E9" stroke-width="1.5"/><rect width="64" height="64" x="-32" y="-32" rx="1" fill="none" stroke="#15803D" stroke-width="1"/><text y="-10" text-anchor="middle" font-family="JetBrains Mono, monospace" font-weight="bold" font-size="9px" fill="#4ADE80">POWER</text><text y="10" text-anchor="middle" fill="#E0F2E9" font-size="11px" font-weight="bold" style="pointer-events: none;"><tspan x="0" y="10" dy="0em">5V/12V DC</tspan><tspan x="0" y="10" dy="1.1em">Power</tspan><tspan x="0" y="10" dy="2.2em">Supply</tspan><tspan x="0" y="10" dy="3.3000000000000003em">(Sensors)</tspan></text></g><g transform="translate(637.2801667553525,182.9754814589072)"><rect width="70" height="70" x="-35" y="-35" rx="2" fill="#052016" stroke="#E0F2E9" stroke-width="1.5"/><rect width="64" height="64" x="-32" y="-32" rx="1" fill="none" stroke="#15803D" stroke-width="1"/><text y="-10" text-anchor="middle" font-family="JetBrains Mono, monospace" font-weight="bold" font-size="9px" fill="#4ADE80">MODULE</text><text y="10" text-anchor="middle" fill="#E0F2E9" font-size="11px" font-weight="bold" style="pointer-events: none;"><tspan x="0" y="10" dy="0em">PCIe</tspan><tspan x="0" y="10" dy="1.1em">Motion</tspan><tspan x="0" y="10" dy="2.2em">Control</tspan><tspan x="0" y="10" dy="3.3000000000000003em">Card</tspan></text></g></g></g><defs><marker id="arrow-data" viewBox="0 -5 10 10" refX="9" refY="0" markerWidth="6" markerHeight="6" orient="auto"><path d="M0,-5L10,0L0,5" fill="#E0F2E9"/></marker><marker id="arrow-power" viewBox="0 -5 10 10" refX="9" refY="0" markerWidth="6" markerHeight="6" orient="auto"><path d="M0,-5L10,0L0,5" fill="#d4b483"/></marker><pattern id="grid" width="40" height="40" patternUnits="userSpaceOnUse"><path d="M 40 0 L 0 0 0 40" fill="none" stroke="#0C3827" stroke-width="1"/></pattern></defs></svg>