<?xml version="1.0" standalone="no"?>
<svg xmlns:xlink="http://www.w3.org/1999/xlink" xmlns="http://www.w3.org/2000/svg" id="hardware-graph-svg" class="w-full h-full cursor-grab active:cursor-grabbing"><rect width="100%" height="100%" fill="url(#grid)"/><g><g><path stroke="#d4b483" stroke-width="1.5" stroke-dasharray="4,4" marker-end="url(#arrow-power)" fill="none" d="M 568.4941658244993 254.62313704887404 L 568.4941658244993 369.83574801661865 L 708.5753279658704 369.83574801661865 L 708.5753279658704 446.0483589843633"/><path stroke="#d4b483" stroke-width="1.5" stroke-dasharray="4,4" marker-end="url(#arrow-power)" fill="none" d="M 1101.6692632370878 964.7702329749615 L 1101.6692632370878 864.6587782835459 L 935.2417862211344 864.6587782835459 L 935.2417862211344 803.5473235921304"/><path stroke="#E0F2E9" stroke-width="2" stroke-dasharray="0" marker-end="url(#arrow-data)" fill="none" d="M 708.5753279658704 485.0483589843633 L 708.5753279658704 624.7978412882469 L 935.2417862211344 624.7978412882469 L 935.2417862211344 725.5473235921304"/><path stroke="#E0F2E9" stroke-width="2" stroke-dasharray="0" marker-end="url(#arrow-data)" fill="none" d="M 935.2417862211344 764.5473235921304 L 935.2417862211344 887.4013233108692 L 866.0274476044445 887.4013233108692 L 866.0274476044445 971.2553230296081"/><path stroke="#E0F2E9" stroke-width="2" stroke-dasharray="0" marker-end="url(#arrow-data)" fill="none" d="M 935.2417862211344 764.5473235921304 L 1060.6177949410962 764.5473235921304 L 1060.6177949410962 740.0786958975334 L 1146.9938036610579 740.0786958975334"/><path stroke="#E0F2E9" stroke-width="2" stroke-dasharray="0" marker-end="url(#arrow-data)" fill="none" d="M 708.5753279658704 485.0483589843633 L 506.8316237448613 485.0483589843633 L 506.8316237448613 650.9893646498741 L 344.0879195238521 650.9893646498741"/><path stroke="#d4b483" stroke-width="1.5" stroke-dasharray="4,4" marker-end="url(#arrow-power)" fill="none" d="M 7.663225617249292 644.4707863258711 L 156.3755725705507 644.4707863258711 L 156.3755725705507 650.9893646498741 L 266.0879195238521 650.9893646498741"/><path stroke="#d4b483" stroke-width="1.5" stroke-dasharray="4,4" marker-end="url(#arrow-power)" fill="none" d="M 7.663225617249292 644.4707863258711 L 7.663225617249292 753.8616096658653 L 106.3116215561718 753.8616096658653 L 106.3116215561718 824.2524330058595"/><path stroke="#E0F2E9" stroke-width="2" stroke-dasharray="0" marker-end="url(#arrow-data)" fill="none" d="M 305.0879195238521 650.9893646498741 L 305.0879195238521 757.1208988278668 L 106.3116215561718 757.1208988278668 L 106.3116215561718 824.2524330058595"/><path stroke="#E0F2E9" stroke-width="2" stroke-dasharray="0" marker-end="url(#arrow-data)" fill="none" d="M 708.5753279658704 485.0483589843633 L 708.5753279658704 596.1316563961519 L 617.40663954373 596.1316563961519 L 617.40663954373 668.2149538079406"/><path stroke="#E0F2E9" stroke-width="2" stroke-dasharray="0" marker-end="url(#arrow-data)" fill="none" d="M 708.5753279658704 485.0483589843633 L 708.5753279658704 371.5028610401307 L 808.4580783782152 371.5028610401307 L 808.4580783782152 296.9573630958982"/><path stroke="#d4b483" stroke-width="1.5" stroke-dasharray="4,4" marker-end="url(#arrow-power)" fill="none" d="M 814.3163369279916 -553.9960144254261 L 814.3163369279916 -667.0293192785906 L 894.8801631692049 -667.0293192785906 L 894.8801631692049 -741.0626241317551"/><path stroke="#d4b483" stroke-width="1.5" stroke-dasharray="4,4" marker-end="url(#arrow-power)" fill="none" d="M 894.8801631692049 -780.0626241317551 L 1014.8373267362655 -780.0626241317551 L 1014.8373267362655 -773.9521799862471 L 1095.794490303326 -773.9521799862471"/><path stroke="#d4b483" stroke-width="1.5" stroke-dasharray="4,4" marker-end="url(#arrow-power)" fill="none" d="M 1353.2333702769079 284.7594792636531 L 1353.2333702769079 177.03347288874758 L 1247.5104061736306 177.03347288874758 L 1247.5104061736306 108.3074665138421"/><path stroke="#d4b483" stroke-width="1.5" stroke-dasharray="4,4" marker-end="url(#arrow-power)" fill="none" d="M 1353.2333702769079 284.7594792636531 L 1205.1169627655022 284.7594792636531 L 1205.1169627655022 293.756039914149 L 1096.0005552540965 293.756039914149"/><path stroke="#E0F2E9" stroke-width="2" stroke-dasharray="0" marker-end="url(#arrow-data)" fill="none" d="M 708.5753279658704 485.0483589843633 L 882.7879416099835 485.0483589843633 L 882.7879416099835 293.756039914149 L 1018.0005552540965 293.756039914149"/><path stroke="#E0F2E9" stroke-width="2" stroke-dasharray="0" marker-end="url(#arrow-data)" fill="none" d="M 1057.0005552540965 293.756039914149 L 1057.0005552540965 181.53175321399556 L 1247.5104061736306 181.53175321399556 L 1247.5104061736306 108.3074665138421"/><path stroke="#E0F2E9" stroke-width="2" stroke-dasharray="0" marker-end="url(#arrow-data)" fill="none" d="M 708.5753279658704 485.0483589843633 L 585.6584059651755 485.0483589843633 L 585.6584059651755 470.0605646252998 L 501.7414839644804 470.0605646252998"/></g><g><rect rx="0" fill="#052016" stroke="#0C3827" stroke-width="1" x="595.5347290039062" y="360.58575439453125" width="86" height="17"/><rect rx="0" fill="#052016" stroke="#0C3827" stroke-width="1" x="996.4554443359375" y="855.4087524414062" width="44" height="17"/><rect rx="0" fill="#052016" stroke="#0C3827" stroke-width="1" x="796.9085693359375" y="615.5478515625" width="50" height="17"/><rect rx="0" fill="#052016" stroke="#0C3827" stroke-width="1" x="875.6346435546875" y="878.1513061523438" width="50" height="17"/><rect rx="0" fill="#052016" stroke="#0C3827" stroke-width="1" x="1035.6177978515625" y="743.06298828125" width="50" height="17"/><rect rx="0" fill="#052016" stroke="#0C3827" stroke-width="1" x="457.83160400390625" y="558.7688598632812" width="98" height="17"/><rect rx="0" fill="#052016" stroke="#0C3827" stroke-width="1" x="137.37557983398438" y="638.4801025390625" width="38" height="17"/><rect rx="0" fill="#052016" stroke="#0C3827" stroke-width="1" x="37.98741912841797" y="744.6116333007812" width="38" height="17"/><rect rx="0" fill="#052016" stroke="#0C3827" stroke-width="1" x="177.69976806640625" y="747.8709106445312" width="56" height="17"/><rect rx="0" fill="#052016" stroke="#0C3827" stroke-width="1" x="637.990966796875" y="586.8816528320312" width="50" height="17"/><rect rx="0" fill="#052016" stroke="#0C3827" stroke-width="1" x="712.5167236328125" y="362.25286865234375" width="92" height="17"/><rect rx="0" fill="#052016" stroke="#0C3827" stroke-width="1" x="823.5982666015625" y="-676.279296875" width="62" height="17"/><rect rx="0" fill="#052016" stroke="#0C3827" stroke-width="1" x="974.8372802734375" y="-786.2573852539062" width="80" height="17"/><rect rx="0" fill="#052016" stroke="#0C3827" stroke-width="1" x="1281.3719482421875" y="167.78347778320312" width="38" height="17"/><rect rx="0" fill="#052016" stroke="#0C3827" stroke-width="1" x="1186.116943359375" y="280.00775146484375" width="38" height="17"/><rect rx="0" fill="#052016" stroke="#0C3827" stroke-width="1" x="830.7879638671875" y="380.1521911621094" width="104" height="17"/><rect rx="0" fill="#052016" stroke="#0C3827" stroke-width="1" x="1118.2554931640625" y="172.28175354003906" width="68" height="17"/><rect rx="0" fill="#052016" stroke="#0C3827" stroke-width="1" x="557.6583862304688" y="468.3044738769531" width="56" height="17"/></g><g><text font-size="10px" fill="#d4b483" text-anchor="middle" alignment-baseline="middle" font-family="JetBrains Mono, monospace" x="638.5347468951849" y="369.83574801661865">5.1V/5A USB-C</text><text font-size="10px" fill="#d4b483" text-anchor="middle" alignment-baseline="middle" font-family="JetBrains Mono, monospace" x="1018.4555247291111" y="864.6587782835459">12V DC</text><text font-size="10px" fill="#E0F2E9" text-anchor="middle" alignment-baseline="middle" font-family="JetBrains Mono, monospace" x="821.9085570935024" y="624.7978412882469">USB 3.0</text><text font-size="10px" fill="#E0F2E9" text-anchor="middle" alignment-baseline="middle" font-family="JetBrains Mono, monospace" x="900.6346169127894" y="887.4013233108692">USB 2.0</text><text font-size="10px" fill="#E0F2E9" text-anchor="middle" alignment-baseline="middle" font-family="JetBrains Mono, monospace" x="1060.6177949410962" y="752.3130097448319">USB 2.0</text><text font-size="10px" fill="#E0F2E9" text-anchor="middle" alignment-baseline="middle" font-family="JetBrains Mono, monospace" x="506.8316237448613" y="568.0188618171187">UART/SPI (GPIO)</text><text font-size="10px" fill="#d4b483" text-anchor="middle" alignment-baseline="middle" font-family="JetBrains Mono, monospace" x="156.3755725705507" y="647.7300754878727">5V DC</text><text font-size="10px" fill="#d4b483" text-anchor="middle" alignment-baseline="middle" font-family="JetBrains Mono, monospace" x="56.98742358671055" y="753.8616096658653">5V DC</text><text font-size="10px" fill="#E0F2E9" text-anchor="middle" alignment-baseline="middle" font-family="JetBrains Mono, monospace" x="205.69977054001197" y="757.1208988278668">Data Pin</text><text font-size="10px" fill="#E0F2E9" text-anchor="middle" alignment-baseline="middle" font-family="JetBrains Mono, monospace" x="662.9909837548003" y="596.1316563961519">USB 2.0</text><text font-size="10px" fill="#E0F2E9" text-anchor="middle" alignment-baseline="middle" font-family="JetBrains Mono, monospace" x="758.5167031720428" y="371.5028610401307">I2C/SPI (GPIO)</text><text font-size="10px" fill="#d4b483" text-anchor="middle" alignment-baseline="middle" font-family="JetBrains Mono, monospace" x="854.5982500485983" y="-667.0293192785906">12V/5V DC</text><text font-size="10px" fill="#d4b483" text-anchor="middle" alignment-baseline="middle" font-family="JetBrains Mono, monospace" x="1014.8373267362655" y="-777.0074020590012">USB Power 5V</text><text font-size="10px" fill="#d4b483" text-anchor="middle" alignment-baseline="middle" font-family="JetBrains Mono, monospace" x="1300.3718882252692" y="177.03347288874758">5V DC</text><text font-size="10px" fill="#d4b483" text-anchor="middle" alignment-baseline="middle" font-family="JetBrains Mono, monospace" x="1205.1169627655022" y="289.2577595889011">5V DC</text><text font-size="10px" fill="#E0F2E9" text-anchor="middle" alignment-baseline="middle" font-family="JetBrains Mono, monospace" x="882.7879416099835" y="389.40219944925616">Wi-Fi (MQTT/UDP)</text><text font-size="10px" fill="#E0F2E9" text-anchor="middle" alignment-baseline="middle" font-family="JetBrains Mono, monospace" x="1152.2554807138636" y="181.53175321399556">GPIO/HUB75</text><text font-size="10px" fill="#E0F2E9" text-anchor="middle" alignment-baseline="middle" font-family="JetBrains Mono, monospace" x="585.6584059651755" y="477.55446180483153">Ethernet</text></g><g><g transform="translate(708.5753279658704,485.0483589843633)"><rect width="70" height="70" x="-35" y="-35" rx="2" fill="#052016" stroke="#E0F2E9" stroke-width="1.5"/><rect width="64" height="64" x="-32" y="-32" rx="1" fill="none" stroke="#15803D" stroke-width="1"/><text y="-10" text-anchor="middle" font-family="JetBrains Mono, monospace" font-weight="bold" font-size="9px" fill="#4ADE80">MCU</text><text y="10" text-anchor="middle" fill="#E0F2E9" font-size="11px" font-weight="bold" style="pointer-events: none;"><tspan x="0" y="10" dy="0em">Raspberry</tspan><tspan x="0" y="10" dy="1.1em">Pi 5 (Main</tspan><tspan x="0" y="10" dy="2.2em">Controller)</tspan></text></g><g transform="translate(866.0274476044445,1010.2553230296081)"><rect width="70" height="70" x="-35" y="-35" rx="2" fill="#052016" stroke="#E0F2E9" stroke-width="1.5"/><rect width="64" height="64" x="-32" y="-32" rx="1" fill="none" stroke="#15803D" stroke-width="1"/><text y="-10" text-anchor="middle" font-family="JetBrains Mono, monospace" font-weight="bold" font-size="9px" fill="#4ADE80">SENSOR</text><text y="10" text-anchor="middle" fill="#E0F2E9" font-size="11px" font-weight="bold" style="pointer-events: none;"><tspan x="0" y="10" dy="0em">USB Camera</tspan><tspan x="0" y="10" dy="1.1em">(Left)</tspan></text></g><g transform="translate(1185.9938036610579,740.0786958975334)"><rect width="70" height="70" x="-35" y="-35" rx="2" fill="#052016" stroke="#E0F2E9" stroke-width="1.5"/><rect width="64" height="64" x="-32" y="-32" rx="1" fill="none" stroke="#15803D" stroke-width="1"/><text y="-10" text-anchor="middle" font-family="JetBrains Mono, monospace" font-weight="bold" font-size="9px" fill="#4ADE80">SENSOR</text><text y="10" text-anchor="middle" fill="#E0F2E9" font-size="11px" font-weight="bold" style="pointer-events: none;"><tspan x="0" y="10" dy="0em">USB Camera</tspan><tspan x="0" y="10" dy="1.1em">(Right)</tspan></text></g><g transform="translate(935.2417862211344,764.5473235921304)"><rect width="70" height="70" x="-35" y="-35" rx="2" fill="#052016" stroke="#E0F2E9" stroke-width="1.5"/><rect width="64" height="64" x="-32" y="-32" rx="1" fill="none" stroke="#15803D" stroke-width="1"/><text y="-10" text-anchor="middle" font-family="JetBrains Mono, monospace" font-weight="bold" font-size="9px" fill="#4ADE80">MODULE</text><text y="10" text-anchor="middle" fill="#E0F2E9" font-size="11px" font-weight="bold" style="pointer-events: none;"><tspan x="0" y="10" dy="0em">Powered</tspan><tspan x="0" y="10" dy="1.1em">USB 3.0</tspan><tspan x="0" y="10" dy="2.2em">Hub</tspan><tspan x="0" y="10" dy="3.3000000000000003em">(Camera)</tspan></text></g><g transform="translate(305.0879195238521,650.9893646498741)"><rect width="70" height="70" x="-35" y="-35" rx="2" fill="#052016" stroke="#E0F2E9" stroke-width="1.5"/><rect width="64" height="64" x="-32" y="-32" rx="1" fill="none" stroke="#15803D" stroke-width="1"/><text y="-10" text-anchor="middle" font-family="JetBrains Mono, monospace" font-weight="bold" font-size="9px" fill="#4ADE80">MCU</text><text y="10" text-anchor="middle" fill="#E0F2E9" font-size="11px" font-weight="bold" style="pointer-events: none;"><tspan x="0" y="10" dy="0em">WS2812B</tspan><tspan x="0" y="10" dy="1.1em">LED</tspan><tspan x="0" y="10" dy="2.2em">Controller</tspan><tspan x="0" y="10" dy="3.3000000000000003em">(ESP32)</tspan></text></g><g transform="translate(106.3116215561718,863.2524330058595)"><rect width="70" height="70" x="-35" y="-35" rx="2" fill="#052016" stroke="#E0F2E9" stroke-width="1.5"/><rect width="64" height="64" x="-32" y="-32" rx="1" fill="none" stroke="#15803D" stroke-width="1"/><text y="-10" text-anchor="middle" font-family="JetBrains Mono, monospace" font-weight="bold" font-size="9px" fill="#4ADE80">ACTUATOR</text><text y="10" text-anchor="middle" fill="#E0F2E9" font-size="11px" font-weight="bold" style="pointer-events: none;"><tspan x="0" y="10" dy="0em">WS2812B</tspan><tspan x="0" y="10" dy="1.1em">LED Strips</tspan></text></g><g transform="translate(536.3996587134517,1767.082057663779)"><rect width="70" height="70" x="-35" y="-35" rx="2" fill="#052016" stroke="#E0F2E9" stroke-width="1.5"/><rect width="64" height="64" x="-32" y="-32" rx="1" fill="none" stroke="#15803D" stroke-width="1"/><text y="-10" text-anchor="middle" font-family="JetBrains Mono, monospace" font-weight="bold" font-size="9px" fill="#4ADE80">OTHER</text><text y="10" text-anchor="middle" fill="#E0F2E9" font-size="11px" font-weight="bold" style="pointer-events: none;"><tspan x="0" y="10" dy="0em">Sumo</tspan><tspan x="0" y="10" dy="1.1em">Competition</tspan><tspan x="0" y="10" dy="2.2em">Mat (3x3m)</tspan></text></g><g transform="translate(58.1771285924869,-703.5997021995727)"><rect width="70" height="70" x="-35" y="-35" rx="2" fill="#052016" stroke="#E0F2E9" stroke-width="1.5"/><rect width="64" height="64" x="-32" y="-32" rx="1" fill="none" stroke="#15803D" stroke-width="1"/><text y="-10" text-anchor="middle" font-family="JetBrains Mono, monospace" font-weight="bold" font-size="9px" fill="#4ADE80">OTHER</text><text y="10" text-anchor="middle" fill="#E0F2E9" font-size="11px" font-weight="bold" style="pointer-events: none;"><tspan x="0" y="10" dy="0em">Overhead</tspan><tspan x="0" y="10" dy="1.1em">Camera Rig</tspan><tspan x="0" y="10" dy="2.2em">(Aluminum/PVC)</tspan></text></g><g transform="translate(1993.4509278649155,1060.3476255568405)"><rect width="70" height="70" x="-35" y="-35" rx="2" fill="#052016" stroke="#E0F2E9" stroke-width="1.5"/><rect width="64" height="64" x="-32" y="-32" rx="1" fill="none" stroke="#15803D" stroke-width="1"/><text y="-10" text-anchor="middle" font-family="JetBrains Mono, monospace" font-weight="bold" font-size="9px" fill="#4ADE80">OTHER</text><text y="10" text-anchor="middle" fill="#E0F2E9" font-size="11px" font-weight="bold" style="pointer-events: none;"><tspan x="0" y="10" dy="0em">Referee</tspan><tspan x="0" y="10" dy="1.1em">Laptop</tspan><tspan x="0" y="10" dy="2.2em">Stand</tspan></text></g><g transform="translate(617.40663954373,707.2149538079406)"><rect width="70" height="70" x="-35" y="-35" rx="2" fill="#052016" stroke="#E0F2E9" stroke-width="1.5"/><rect width="64" height="64" x="-32" y="-32" rx="1" fill="none" stroke="#15803D" stroke-width="1"/><text y="-10" text-anchor="middle" font-family="JetBrains Mono, monospace" font-weight="bold" font-size="9px" fill="#4ADE80">MODULE</text><text y="10" text-anchor="middle" fill="#E0F2E9" font-size="11px" font-weight="bold" style="pointer-events: none;"><tspan x="0" y="10" dy="0em">Custom</tspan><tspan x="0" y="10" dy="1.1em">Button</tspan><tspan x="0" y="10" dy="2.2em">Panel</tspan><tspan x="0" y="10" dy="3.3000000000000003em">(Arduino-based)</tspan></text></g><g transform="translate(808.4580783782152,257.9573630958982)"><rect width="70" height="70" x="-35" y="-35" rx="2" fill="#052016" stroke="#E0F2E9" stroke-width="1.5"/><rect width="64" height="64" x="-32" y="-32" rx="1" fill="none" stroke="#15803D" stroke-width="1"/><text y="-10" text-anchor="middle" font-family="JetBrains Mono, monospace" font-weight="bold" font-size="9px" fill="#4ADE80">DISPLAY</text><text y="10" text-anchor="middle" fill="#E0F2E9" font-size="11px" font-weight="bold" style="pointer-events: none;"><tspan x="0" y="10" dy="0em">Small</tspan><tspan x="0" y="10" dy="1.1em">LCD/OLED</tspan><tspan x="0" y="10" dy="2.2em">Display</tspan></text></g><g transform="translate(894.8801631692049,-780.0626241317551)"><rect width="70" height="70" x="-35" y="-35" rx="2" fill="#052016" stroke="#E0F2E9" stroke-width="1.5"/><rect width="64" height="64" x="-32" y="-32" rx="1" fill="none" stroke="#15803D" stroke-width="1"/><text y="-10" text-anchor="middle" font-family="JetBrains Mono, monospace" font-weight="bold" font-size="9px" fill="#4ADE80">MODULE</text><text y="10" text-anchor="middle" fill="#E0F2E9" font-size="11px" font-weight="bold" style="pointer-events: none;"><tspan x="0" y="10" dy="0em">Multi-Port</tspan><tspan x="0" y="10" dy="1.1em">USB</tspan><tspan x="0" y="10" dy="2.2em">Charging</tspan><tspan x="0" y="10" dy="3.3000000000000003em">Hub</tspan></text></g><g transform="translate(-502.8731360068653,-154.50219720033533)"><rect width="70" height="70" x="-35" y="-35" rx="2" fill="#052016" stroke="#E0F2E9" stroke-width="1.5"/><rect width="64" height="64" x="-32" y="-32" rx="1" fill="none" stroke="#15803D" stroke-width="1"/><text y="-10" text-anchor="middle" font-family="JetBrains Mono, monospace" font-weight="bold" font-size="9px" fill="#4ADE80">OTHER</text><text y="10" text-anchor="middle" fill="#E0F2E9" font-size="11px" font-weight="bold" style="pointer-events: none;"><tspan x="0" y="10" dy="0em">Modular</tspan><tspan x="0" y="10" dy="1.1em">Foam</tspan><tspan x="0" y="10" dy="2.2em">Safety</tspan><tspan x="0" y="10" dy="3.3000000000000003em">Panels</tspan></text></g><g transform="translate(2106.5077830581376,-27.38955188519511)"><rect width="70" height="70" x="-35" y="-35" rx="2" fill="#052016" stroke="#E0F2E9" stroke-width="1.5"/><rect width="64" height="64" x="-32" y="-32" rx="1" fill="none" stroke="#15803D" stroke-width="1"/><text y="-10" text-anchor="middle" font-family="JetBrains Mono, monospace" font-weight="bold" font-size="9px" fill="#4ADE80">OTHER</text><text y="10" text-anchor="middle" fill="#E0F2E9" font-size="11px" font-weight="bold" style="pointer-events: none;"><tspan x="0" y="10" dy="0em">Heavy-Duty</tspan><tspan x="0" y="10" dy="1.1em">Equipment</tspan><tspan x="0" y="10" dy="2.2em">Storage</tspan><tspan x="0" y="10" dy="3.3000000000000003em">Cart</tspan></text></g><g transform="translate(-139.80490219682144,1556.5519161271293)"><rect width="70" height="70" x="-35" y="-35" rx="2" fill="#052016" stroke="#E0F2E9" stroke-width="1.5"/><rect width="64" height="64" x="-32" y="-32" rx="1" fill="none" stroke="#15803D" stroke-width="1"/><text y="-10" text-anchor="middle" font-family="JetBrains Mono, monospace" font-weight="bold" font-size="9px" fill="#4ADE80">OTHER</text><text y="10" text-anchor="middle" fill="#E0F2E9" font-size="11px" font-weight="bold" style="pointer-events: none;"><tspan x="0" y="10" dy="0em">Stackable</tspan><tspan x="0" y="10" dy="1.1em">Storage</tspan><tspan x="0" y="10" dy="2.2em">Bins</tspan></text></g><g transform="translate(1247.5104061736306,69.3074665138421)"><rect width="70" height="70" x="-35" y="-35" rx="2" fill="#052016" stroke="#E0F2E9" stroke-width="1.5"/><rect width="64" height="64" x="-32" y="-32" rx="1" fill="none" stroke="#15803D" stroke-width="1"/><text y="-10" text-anchor="middle" font-family="JetBrains Mono, monospace" font-weight="bold" font-size="9px" fill="#4ADE80">DISPLAY</text><text y="10" text-anchor="middle" fill="#E0F2E9" font-size="11px" font-weight="bold" style="pointer-events: none;"><tspan x="0" y="10" dy="0em">Large LED</tspan><tspan x="0" y="10" dy="1.1em">Matrix</tspan><tspan x="0" y="10" dy="2.2em">Display</tspan><tspan x="0" y="10" dy="3.3000000000000003em">(P10</tspan><tspan x="0" y="10" dy="4.4em">Panels)</tspan></text></g><g transform="translate(1057.0005552540965,293.756039914149)"><rect width="70" height="70" x="-35" y="-35" rx="2" fill="#052016" stroke="#E0F2E9" stroke-width="1.5"/><rect width="64" height="64" x="-32" y="-32" rx="1" fill="none" stroke="#15803D" stroke-width="1"/><text y="-10" text-anchor="middle" font-family="JetBrains Mono, monospace" font-weight="bold" font-size="9px" fill="#4ADE80">MCU</text><text y="10" text-anchor="middle" fill="#E0F2E9" font-size="11px" font-weight="bold" style="pointer-events: none;"><tspan x="0" y="10" dy="0em">ESP32/RPi</tspan><tspan x="0" y="10" dy="1.1em">Zero 2W</tspan><tspan x="0" y="10" dy="2.2em">(Scoreboard)</tspan></text></g><g transform="translate(568.4941658244993,254.62313704887404)"><rect width="70" height="70" x="-35" y="-35" rx="2" fill="#052016" stroke="#E0F2E9" stroke-width="1.5"/><rect width="64" height="64" x="-32" y="-32" rx="1" fill="none" stroke="#15803D" stroke-width="1"/><text y="-10" text-anchor="middle" font-family="JetBrains Mono, monospace" font-weight="bold" font-size="9px" fill="#4ADE80">POWER</text><text y="10" text-anchor="middle" fill="#E0F2E9" font-size="11px" font-weight="bold" style="pointer-events: none;"><tspan x="0" y="10" dy="0em">Raspberry</tspan><tspan x="0" y="10" dy="1.1em">Pi 5 Power</tspan><tspan x="0" y="10" dy="2.2em">Supply</tspan><tspan x="0" y="10" dy="3.3000000000000003em">(27W</tspan><tspan x="0" y="10" dy="4.4em">USB-C)</tspan></text></g><g transform="translate(1101.6692632370878,964.7702329749615)"><rect width="70" height="70" x="-35" y="-35" rx="2" fill="#052016" stroke="#E0F2E9" stroke-width="1.5"/><rect width="64" height="64" x="-32" y="-32" rx="1" fill="none" stroke="#15803D" stroke-width="1"/><text y="-10" text-anchor="middle" font-family="JetBrains Mono, monospace" font-weight="bold" font-size="9px" fill="#4ADE80">POWER</text><text y="10" text-anchor="middle" fill="#E0F2E9" font-size="11px" font-weight="bold" style="pointer-events: none;"><tspan x="0" y="10" dy="0em">USB Hub</tspan><tspan x="0" y="10" dy="1.1em">Power</tspan><tspan x="0" y="10" dy="2.2em">Supply</tspan><tspan x="0" y="10" dy="3.3000000000000003em">(Camera)</tspan></text></g><g transform="translate(7.663225617249292,644.4707863258711)"><rect width="70" height="70" x="-35" y="-35" rx="2" fill="#052016" stroke="#E0F2E9" stroke-width="1.5"/><rect width="64" height="64" x="-32" y="-32" rx="1" fill="none" stroke="#15803D" stroke-width="1"/><text y="-10" text-anchor="middle" font-family="JetBrains Mono, monospace" font-weight="bold" font-size="9px" fill="#4ADE80">POWER</text><text y="10" text-anchor="middle" fill="#E0F2E9" font-size="11px" font-weight="bold" style="pointer-events: none;"><tspan x="0" y="10" dy="0em">5V High</tspan><tspan x="0" y="10" dy="1.1em">Current</tspan><tspan x="0" y="10" dy="2.2em">Power</tspan><tspan x="0" y="10" dy="3.3000000000000003em">Supply</tspan><tspan x="0" y="10" dy="4.4em">(LEDs)</tspan></text></g><g transform="translate(814.3163369279916,-553.9960144254261)"><rect width="70" height="70" x="-35" y="-35" rx="2" fill="#052016" stroke="#E0F2E9" stroke-width="1.5"/><rect width="64" height="64" x="-32" y="-32" rx="1" fill="none" stroke="#15803D" stroke-width="1"/><text y="-10" text-anchor="middle" font-family="JetBrains Mono, monospace" font-weight="bold" font-size="9px" fill="#4ADE80">POWER</text><text y="10" text-anchor="middle" fill="#E0F2E9" font-size="11px" font-weight="bold" style="pointer-events: none;"><tspan x="0" y="10" dy="0em">Multi-Port</tspan><tspan x="0" y="10" dy="1.1em">USB</tspan><tspan x="0" y="10" dy="2.2em">Charging</tspan><tspan x="0" y="10" dy="3.3000000000000003em">Station</tspan><tspan x="0" y="10" dy="4.4em">Power</tspan><tspan x="0" y="10" dy="5.5em">Supply</tspan></text></g><g transform="translate(1353.2333702769079,284.7594792636531)"><rect width="70" height="70" x="-35" y="-35" rx="2" fill="#052016" stroke="#E0F2E9" stroke-width="1.5"/><rect width="64" height="64" x="-32" y="-32" rx="1" fill="none" stroke="#15803D" stroke-width="1"/><text y="-10" text-anchor="middle" font-family="JetBrains Mono, monospace" font-weight="bold" font-size="9px" fill="#4ADE80">POWER</text><text y="10" text-anchor="middle" fill="#E0F2E9" font-size="11px" font-weight="bold" style="pointer-events: none;"><tspan x="0" y="10" dy="0em">5V Power</tspan><tspan x="0" y="10" dy="1.1em">Supply</tspan><tspan x="0" y="10" dy="2.2em">(Scoreboard)</tspan></text></g><g transform="translate(462.7414839644804,470.0605646252998)"><rect width="70" height="70" x="-35" y="-35" rx="2" fill="#052016" stroke="#E0F2E9" stroke-width="1.5"/><rect width="64" height="64" x="-32" y="-32" rx="1" fill="none" stroke="#15803D" stroke-width="1"/><text y="-10" text-anchor="middle" font-family="JetBrains Mono, monospace" font-weight="bold" font-size="9px" fill="#4ADE80">MODULE</text><text y="10" text-anchor="middle" fill="#E0F2E9" font-size="11px" font-weight="bold" style="pointer-events: none;"><tspan x="0" y="10" dy="0em">Gigabit</tspan><tspan x="0" y="10" dy="1.1em">Ethernet</tspan><tspan x="0" y="10" dy="2.2em">Switch</tspan></text></g><g transform="translate(1134.794490303326,-773.9521799862471)"><rect width="70" height="70" x="-35" y="-35" rx="2" fill="#052016" stroke="#E0F2E9" stroke-width="1.5"/><rect width="64" height="64" x="-32" y="-32" rx="1" fill="none" stroke="#15803D" stroke-width="1"/><text y="-10" text-anchor="middle" font-family="JetBrains Mono, monospace" font-weight="bold" font-size="9px" fill="#4ADE80">OTHER</text><text y="10" text-anchor="middle" fill="#E0F2E9" font-size="11px" font-weight="bold" style="pointer-events: none;"><tspan x="0" y="10" dy="0em">Robot</tspan><tspan x="0" y="10" dy="1.1em">Charging</tspan><tspan x="0" y="10" dy="2.2em">Cables</tspan><tspan x="0" y="10" dy="3.3000000000000003em">(x2)</tspan></text></g></g></g><defs><marker id="arrow-data" viewBox="0 -5 10 10" refX="9" refY="0" markerWidth="6" markerHeight="6" orient="auto"><path d="M0,-5L10,0L0,5" fill="#E0F2E9"/></marker><marker id="arrow-power" viewBox="0 -5 10 10" refX="9" refY="0" markerWidth="6" markerHeight="6" orient="auto"><path d="M0,-5L10,0L0,5" fill="#d4b483"/></marker><pattern id="grid" width="40" height="40" patternUnits="userSpaceOnUse"><path d="M 40 0 L 0 0 0 40" fill="none" stroke="#0C3827" stroke-width="1"/></pattern></defs></svg>